<svg width="94" height="94" viewBox="0 0 94 94" fill="none" xmlns="http://www.w3.org/2000/svg">
<path d="M56.3333 28.3333H61C62.2377 28.3333 63.4247 27.8416 64.2998 26.9664C65.175 26.0912 65.6667 24.9043 65.6667 23.6666C65.6667 22.4289 65.175 21.2419 64.2998 20.3668C63.4247 19.4916 62.2377 18.9999 61 18.9999H56.3333C55.0957 18.9999 53.9087 19.4916 53.0335 20.3668C52.1583 21.2419 51.6667 22.4289 51.6667 23.6666C51.6667 24.9043 52.1583 26.0912 53.0335 26.9664C53.9087 27.8416 55.0957 28.3333 56.3333 28.3333ZM56.3333 46.9999H61C62.2377 46.9999 63.4247 46.5083 64.2998 45.6331C65.175 44.7579 65.6667 43.5709 65.6667 42.3333C65.6667 41.0956 65.175 39.9086 64.2998 39.0334C63.4247 38.1583 62.2377 37.6666 61 37.6666H56.3333C55.0957 37.6666 53.9087 38.1583 53.0335 39.0334C52.1583 39.9086 51.6667 41.0956 51.6667 42.3333C51.6667 43.5709 52.1583 44.7579 53.0335 45.6331C53.9087 46.5083 55.0957 46.9999 56.3333 46.9999ZM33 28.3333H37.6667C38.9043 28.3333 40.0913 27.8416 40.9665 26.9664C41.8417 26.0912 42.3333 24.9043 42.3333 23.6666C42.3333 22.4289 41.8417 21.2419 40.9665 20.3668C40.0913 19.4916 38.9043 18.9999 37.6667 18.9999H33C31.7623 18.9999 30.5753 19.4916 29.7002 20.3668C28.825 21.2419 28.3333 22.4289 28.3333 23.6666C28.3333 24.9043 28.825 26.0912 29.7002 26.9664C30.5753 27.8416 31.7623 28.3333 33 28.3333ZM33 46.9999H37.6667C38.9043 46.9999 40.0913 46.5083 40.9665 45.6331C41.8417 44.7579 42.3333 43.5709 42.3333 42.3333C42.3333 41.0956 41.8417 39.9086 40.9665 39.0334C40.0913 38.1583 38.9043 37.6666 37.6667 37.6666H33C31.7623 37.6666 30.5753 38.1583 29.7002 39.0334C28.825 39.9086 28.3333 41.0956 28.3333 42.3333C28.3333 43.5709 28.825 44.7579 29.7002 45.6331C30.5753 46.5083 31.7623 46.9999 33 46.9999ZM89 84.3333H84.3333V4.99992C84.3333 3.76224 83.8417 2.57526 82.9665 1.70009C82.0913 0.824917 80.9043 0.333252 79.6667 0.333252H14.3333C13.0957 0.333252 11.9087 0.824917 11.0335 1.70009C10.1583 2.57526 9.66667 3.76224 9.66667 4.99992V84.3333H5C3.76232 84.3333 2.57534 84.8249 1.70017 85.7001C0.824997 86.5753 0.333332 87.7622 0.333332 88.9999C0.333332 90.2376 0.824997 91.4246 1.70017 92.2998C2.57534 93.1749 3.76232 93.6666 5 93.6666H89C90.2377 93.6666 91.4247 93.1749 92.2998 92.2998C93.175 91.4246 93.6667 90.2376 93.6667 88.9999C93.6667 87.7622 93.175 86.5753 92.2998 85.7001C91.4247 84.8249 90.2377 84.3333 89 84.3333ZM51.6667 84.3333H42.3333V65.6666H51.6667V84.3333ZM75 84.3333H61V60.9999C61 59.7622 60.5083 58.5753 59.6332 57.7001C58.758 56.8249 57.571 56.3333 56.3333 56.3333H37.6667C36.429 56.3333 35.242 56.8249 34.3668 57.7001C33.4917 58.5753 33 59.7622 33 60.9999V84.3333H19V9.66659H75V84.3333Z" fill="white"/>
</svg>
