<svg width="52" height="52" viewBox="0 0 52 52" fill="none" xmlns="http://www.w3.org/2000/svg">
<path d="M2.75033 51.8334C2.01838 51.8334 1.40527 51.5854 0.910993 51.0894C0.414992 50.5951 0.166992 49.982 0.166992 49.2501V28.5834C0.166992 27.8515 0.414992 27.2375 0.910993 26.7415C1.40527 26.2472 2.01838 26.0001 2.75033 26.0001H10.5003V15.6667C10.5003 11.3612 12.0073 7.70147 15.0212 4.68758C18.035 1.67369 21.6948 0.166748 26.0003 0.166748H36.3337C40.6392 0.166748 44.2989 1.67369 47.3128 4.68758C50.3267 7.70147 51.8337 11.3612 51.8337 15.6667V49.2501C51.8337 49.982 51.5857 50.5951 51.0897 51.0894C50.5954 51.5854 49.9823 51.8334 49.2503 51.8334C48.5184 51.8334 47.9053 51.5854 47.411 51.0894C46.915 50.5951 46.667 49.982 46.667 49.2501V44.0834H36.3337V49.2501C36.3337 49.982 36.0865 50.5951 35.5922 51.0894C35.0962 51.5854 34.4823 51.8334 33.7503 51.8334H2.75033ZM36.3337 38.9168H46.667V15.6667C46.667 12.8251 45.6552 10.3924 43.6316 8.36883C41.608 6.34522 39.1753 5.33342 36.3337 5.33342H26.0003C23.1587 5.33342 20.726 6.34522 18.7024 8.36883C16.6788 10.3924 15.667 12.8251 15.667 15.6667V26.0001H33.7503C34.4823 26.0001 35.0962 26.2472 35.5922 26.7415C36.0865 27.2375 36.3337 27.8515 36.3337 28.5834V38.9168ZM23.417 20.8334C22.685 20.8334 22.0719 20.5854 21.5777 20.0894C21.0817 19.5951 20.8337 18.982 20.8337 18.2501C20.8337 17.5181 21.0817 16.9042 21.5777 16.4082C22.0719 15.9139 22.685 15.6667 23.417 15.6667H38.917C39.6489 15.6667 40.2621 15.9139 40.7563 16.4082C41.2523 16.9042 41.5003 17.5181 41.5003 18.2501C41.5003 18.982 41.2523 19.5951 40.7563 20.0894C40.2621 20.5854 39.6489 20.8334 38.917 20.8334H23.417ZM18.2503 42.2751C18.7239 42.2751 19.176 42.2105 19.6066 42.0813C20.0371 41.9522 20.4462 41.7799 20.8337 41.5647L30.1982 36.2688C30.4566 36.0966 30.6822 35.8598 30.8751 35.5584C31.0697 35.257 31.167 34.9126 31.167 34.5251C31.167 33.8362 30.8656 33.2765 30.2628 32.8459C29.66 32.4154 28.9927 32.4154 28.2607 32.8459L18.2503 38.5293L8.23991 32.8459C7.55102 32.4584 6.89485 32.4584 6.27141 32.8459C5.64624 33.2334 5.33366 33.7931 5.33366 34.5251C5.33366 34.9126 5.43096 35.257 5.62558 35.5584C5.81846 35.8598 6.04408 36.0966 6.30241 36.2688L15.667 41.5647C16.0545 41.7799 16.4635 41.9522 16.8941 42.0813C17.3246 42.2105 17.7767 42.2751 18.2503 42.2751Z" fill="#283746"/>
</svg>
