<svg width="18" height="20" viewBox="0 0 18 20" fill="none" xmlns="http://www.w3.org/2000/svg">
<path d="M2.58333 19.1667C2.07917 19.1667 1.64742 18.9873 1.28808 18.6286C0.929361 18.2693 0.75 17.8375 0.75 17.3334V4.50004C0.75 3.99587 0.929361 3.56443 1.28808 3.20571C1.64742 2.84637 2.07917 2.66671 2.58333 2.66671H3.5V0.833374H5.33333V2.66671H12.6667V0.833374H14.5V2.66671H15.4167C15.9208 2.66671 16.3526 2.84637 16.7119 3.20571C17.0706 3.56443 17.25 3.99587 17.25 4.50004V17.3334C17.25 17.8375 17.0706 18.2693 16.7119 18.6286C16.3526 18.9873 15.9208 19.1667 15.4167 19.1667H2.58333ZM2.58333 17.3334H15.4167V8.16671H2.58333V17.3334Z" fill="#FFAB00"/>
</svg>
