<svg width="62" height="62" viewBox="0 0 62 62" fill="none" xmlns="http://www.w3.org/2000/svg">
<path d="M31 0C48.1213 0 62 13.8787 62 31C62 48.1213 48.1213 62 31 62C13.8787 62 0 48.1213 0 31C0 13.8787 13.8787 0 31 0ZM31 4.3245C23.9252 4.3245 17.1402 7.13495 12.1376 12.1376C7.13495 17.1402 4.3245 23.9252 4.3245 31C4.3245 38.0748 7.13495 44.8598 12.1376 49.8624C17.1402 54.8651 23.9252 57.6755 31 57.6755C38.0748 57.6755 44.8598 54.8651 49.8624 49.8624C54.8651 44.8598 57.6755 38.0748 57.6755 31C57.6755 23.9252 54.8651 17.1402 49.8624 12.1376C44.8598 7.13495 38.0748 4.3245 31 4.3245ZM37.3488 10.8128C39.3642 11.5749 41.2488 12.6458 42.935 13.9872C43.3225 14.2848 43.6945 14.601 44.0603 14.9389C44.1285 14.9978 44.1874 15.0598 44.2525 15.1249C45.2693 16.0642 46.1931 17.1213 47.0115 18.2559C47.1262 18.414 47.2471 18.5597 47.3525 18.7116C47.5509 19.003 47.7369 19.3068 47.9229 19.6106C48.2428 20.123 48.5376 20.6506 48.8064 21.1916C48.9707 21.5016 49.1164 21.8395 49.2683 22.1681C49.3706 22.3944 49.4853 22.6269 49.5783 22.8687C49.8046 23.4329 50.0061 24.0002 50.189 24.5799C50.2479 24.7721 50.2944 24.9767 50.3502 25.1689C50.6647 26.2719 50.8876 27.3989 51.0167 28.5386C51.0384 28.7432 51.0694 28.9602 51.0849 29.1617C51.1469 29.8282 51.1872 30.5009 51.1872 31.1767C51.1832 32.4972 51.0618 33.8147 50.8245 35.1137C50.7811 35.34 50.7439 35.5694 50.7005 35.7864C50.5765 36.3754 50.4339 36.952 50.2665 37.5224C48.6886 36.8001 46.8348 35.7368 46.3512 34.5681C45.4708 32.4601 43.1272 31.4061 42.1724 28.6905C40.6007 24.1955 42.687 24.3133 42.9784 21.5233C43.1148 20.2151 42.1724 19.9423 40.9293 20.4755C38.0277 21.6938 37.045 21.2257 36.4591 19.0402C35.8732 16.8609 36.4591 16.2533 36.4591 16.2533C34.4813 16.4703 34.4069 14.0616 35.433 13.454C36.146 13.0448 36.7505 11.7893 37.3488 10.8128ZM29.0594 24.1707C30.8884 23.3337 32.5779 23.033 32.3547 21.5946C32.1377 20.1717 31.6231 19.1115 28.7649 19.1115C25.9067 19.1115 27.1529 23.033 24.8093 20.6925C22.4657 18.3675 25.3208 18.9689 26.4926 18.4388C27.6675 17.9056 28.8393 15.7201 26.7871 15.5651C24.738 15.4194 25.1751 16.4703 23.5631 15.8751C21.9511 15.2675 21.2195 17.98 20.1903 17.6018C19.5145 17.3476 17.701 15.9526 16.4982 14.5793C14.0438 16.7141 12.1008 19.3733 10.8128 22.3603C11.1631 26.412 13.3052 28.5386 13.3052 28.5386C13.3052 28.5386 14.4057 31.1767 21.0025 34.4193C21.0025 34.4193 22.2425 34.4937 20.7793 32.9902C19.3161 31.4805 17.701 29.5957 19.5331 28.6192C21.3621 27.6303 21.8798 27.714 22.32 29.5275C22.7571 31.3379 24.2265 30.2715 24.3691 28.5386C24.5179 26.8119 27.2273 25.0046 29.0594 24.1676V24.1707ZM27.6644 33.2847C30.8202 33.2847 30.5257 34.2674 33.0181 36.4622C35.5074 38.6446 34.1899 40.8301 32.9406 42.4917C31.6975 44.1471 30.597 46.0257 30.0111 49.4295C29.4221 52.8209 27.8845 50.4029 27.3761 49.5752C26.8615 48.7413 26.0555 47.9911 26.2787 44.5222C26.4957 41.0564 24.149 43.0962 23.3461 38.5702C22.5401 34.0504 24.5179 33.2878 27.6675 33.2878L27.6644 33.2847ZM43.0931 36.2731C43.9332 35.7368 45.9451 37.1349 45.5111 38.6074C45.0678 40.0799 43.679 39.2491 42.9815 38.6074C42.284 37.9688 42.2468 36.8001 43.0931 36.2731Z" fill="#283746"/>
</svg>
