<svg width="1920" height="496" viewBox="0 0 1920 496" fill="none" xmlns="http://www.w3.org/2000/svg">
<path fill-rule="evenodd" clip-rule="evenodd" d="M1920 496L1840 469.189C1760 441.421 1600 385.884 1440 385.884C1280 385.884 1120 441.421 960 395.46C800 349.498 640 202.039 480 193.421C320 183.846 160 312.155 80 377.267L-4.77146e-06 441.421L-4.33617e-05 -1.52537e-05L80 -2.22476e-05C160 -2.92414e-05 320 -4.3229e-05 480 -5.72167e-05C640 -7.12043e-05 800 -8.5192e-05 960 -9.91796e-05C1120 -0.000113167 1280 -0.000127155 1440 -0.000141143C1600 -0.00015513 1760 -0.000169118 1840 -0.000176112L1920 -0.000183105L1920 496Z" fill="#555555"/>
</svg>
