<svg width="20" height="17" viewBox="0 0 20 17" fill="none" xmlns="http://www.w3.org/2000/svg">
<path d="M9.63685 2.77179L9.99838 3.15023L10.3599 2.77179C11.1786 1.91482 12.5669 0.79071 14.12 0.79071C15.5281 0.79071 16.6937 1.27955 17.5061 2.09054C18.3185 2.90148 18.8078 4.06459 18.8078 5.46917C18.8078 7.00353 18.2068 8.27931 17.272 9.44437C16.3277 10.6214 15.0677 11.6561 13.7777 12.713L13.7726 12.7172C12.5711 13.7013 11.2844 14.7551 10.2889 15.9317C10.222 16.0105 10.1248 16.0555 10.0238 16.0555H9.97469C9.87365 16.0555 9.77599 16.0107 9.70888 15.9319C8.72352 14.7652 7.44921 13.72 6.25804 12.7429L6.22179 12.7132L6.22159 12.713C4.93122 11.6557 3.67148 10.6208 2.72745 9.4438C1.79302 8.27875 1.19238 7.00316 1.19238 5.46917C1.19238 4.06459 1.68169 2.90149 2.49412 2.09056C3.30661 1.27957 4.47245 0.79071 5.881 0.79071C7.43292 0.79071 8.81775 1.9144 9.63685 2.77179Z" stroke="#283746"/>
</svg>
