<svg width="16" height="20" viewBox="0 0 16 20" fill="none" xmlns="http://www.w3.org/2000/svg">
<path d="M7.99984 10C8.504 10 8.93575 9.82037 9.29509 9.46104C9.65381 9.10232 9.83317 8.67087 9.83317 8.16671C9.83317 7.66254 9.65381 7.23079 9.29509 6.87146C8.93575 6.51274 8.504 6.33337 7.99984 6.33337C7.49567 6.33337 7.06423 6.51274 6.7055 6.87146C6.34617 7.23079 6.1665 7.66254 6.1665 8.16671C6.1665 8.67087 6.34617 9.10232 6.7055 9.46104C7.06423 9.82037 7.49567 10 7.99984 10ZM7.99984 19.1667C5.54011 17.0737 3.70311 15.1294 2.48884 13.334C1.27395 11.5391 0.666504 9.87782 0.666504 8.35004C0.666504 6.05837 1.40381 4.23268 2.87842 2.87296C4.35242 1.51324 6.05956 0.833374 7.99984 0.833374C9.94011 0.833374 11.6473 1.51324 13.1213 2.87296C14.5959 4.23268 15.3332 6.05837 15.3332 8.35004C15.3332 9.87782 14.726 11.5391 13.5118 13.334C12.2969 15.1294 10.4596 17.0737 7.99984 19.1667Z" fill="#FFAB00"/>
</svg>
