<svg width="100" height="100" viewBox="0 0 100 100" fill="none" xmlns="http://www.w3.org/2000/svg">
<path d="M53.08 41.4899C53.1478 41.6988 53.2825 41.8795 53.4632 42.0042C53.6439 42.1289 53.8607 42.1906 54.08 42.1799C54.1828 42.1943 54.2872 42.1943 54.39 42.1799C54.5179 42.1365 54.6356 42.0676 54.7361 41.9774C54.8366 41.8872 54.9178 41.7776 54.9748 41.6552C55.0318 41.5328 55.0634 41.4001 55.0678 41.2651C55.0721 41.1302 55.049 40.9957 55 40.8699L52.66 33.6399C52.627 33.507 52.567 33.3823 52.4837 33.2735C52.4005 33.1648 52.2958 33.0742 52.1762 33.0076C52.0565 32.941 51.9245 32.8996 51.7882 32.8861C51.6519 32.8726 51.5143 32.8872 51.3839 32.9291C51.2535 32.9709 51.1331 33.0392 51.0301 33.1295C50.9272 33.2198 50.8438 33.3303 50.7853 33.4541C50.7269 33.578 50.6944 33.7125 50.6901 33.8494C50.6857 33.9863 50.7095 34.1226 50.76 34.2499L53.08 41.4899ZM58.17 39.8399C58.2354 40.0404 58.3625 40.2151 58.5331 40.339C58.7037 40.4629 58.9091 40.5298 59.12 40.5299C59.2251 40.5271 59.3294 40.5103 59.43 40.4799C59.6819 40.3975 59.8907 40.2186 60.0107 39.9823C60.1307 39.7461 60.152 39.4719 60.07 39.2199L57.73 31.9999C57.6476 31.7481 57.4687 31.5392 57.2324 31.4192C56.9962 31.2992 56.722 31.2779 56.47 31.3599C56.2205 31.4424 56.0134 31.6197 55.8937 31.8537C55.7739 32.0876 55.751 32.3593 55.83 32.6099L58.17 39.8399ZM15.88 56.6799C15.88 56.0866 15.7041 55.5065 15.3744 55.0132C15.0448 54.5199 14.5762 54.1353 14.0281 53.9083C13.4799 53.6812 12.8767 53.6218 12.2947 53.7376C11.7128 53.8533 11.1782 54.139 10.7587 54.5586C10.3391 54.9781 10.0534 55.5127 9.93765 56.0946C9.82189 56.6766 9.8813 57.2798 10.1084 57.828C10.3354 58.3761 10.7199 58.8447 11.2133 59.1743C11.7066 59.504 12.2867 59.6799 12.88 59.6799C13.6757 59.6799 14.4387 59.3638 15.0013 58.8012C15.5639 58.2386 15.88 57.4756 15.88 56.6799ZM11.88 56.6799C11.88 56.4821 11.9387 56.2888 12.0485 56.1243C12.1584 55.9599 12.3146 55.8317 12.4973 55.756C12.68 55.6803 12.8811 55.6605 13.0751 55.6991C13.2691 55.7377 13.4473 55.8329 13.5871 55.9728C13.727 56.1127 13.8222 56.2908 13.8608 56.4848C13.8994 56.6788 13.8796 56.8799 13.8039 57.0626C13.7282 57.2453 13.6 57.4015 13.4356 57.5114C13.2711 57.6213 13.0778 57.6799 12.88 57.6799C12.747 57.6826 12.6148 57.6587 12.4912 57.6096C12.3675 57.5605 12.2549 57.4873 12.1599 57.3942C12.0649 57.3011 11.9895 57.1899 11.938 57.0673C11.8865 56.9446 11.86 56.8129 11.86 56.6799H11.88ZM20.69 59.6899C21.2834 59.6899 21.8634 59.514 22.3567 59.1843C22.8501 58.8547 23.2346 58.3861 23.4616 57.838C23.6887 57.2898 23.7481 56.6866 23.6324 56.1046C23.5166 55.5227 23.2309 54.9881 22.8113 54.5686C22.3918 54.149 21.8572 53.8633 21.2753 53.7476C20.6933 53.6318 20.0901 53.6912 19.542 53.9183C18.9938 54.1453 18.5252 54.5299 18.1956 55.0232C17.866 55.5165 17.69 56.0966 17.69 56.6899C17.69 57.4856 18.0061 58.2486 18.5687 58.8112C19.1313 59.3738 19.8944 59.6899 20.69 59.6899ZM20.69 55.6899C20.8878 55.6899 21.0811 55.7486 21.2456 55.8584C21.41 55.9683 21.5382 56.1245 21.6139 56.3072C21.6896 56.49 21.7094 56.691 21.6708 56.885C21.6322 57.079 21.537 57.2572 21.3971 57.397C21.2573 57.5369 21.0791 57.6321 20.8851 57.6707C20.6911 57.7093 20.49 57.6895 20.3073 57.6138C20.1246 57.5381 19.9684 57.4099 19.8585 57.2455C19.7487 57.081 19.69 56.8877 19.69 56.6899C19.6873 56.5569 19.7112 56.4247 19.7603 56.3011C19.8094 56.1774 19.8826 56.0648 19.9757 55.9698C20.0689 55.8748 20.18 55.7994 20.3026 55.7479C20.4253 55.6964 20.557 55.6699 20.69 55.6699V55.6899ZM28.5 59.6899C29.0933 59.6899 29.6734 59.514 30.1667 59.1843C30.6601 58.8547 31.0446 58.3861 31.2716 57.838C31.4987 57.2898 31.5581 56.6866 31.4424 56.1046C31.3266 55.5227 31.0409 54.9881 30.6213 54.5686C30.2018 54.149 29.6672 53.8633 29.0853 53.7476C28.5033 53.6318 27.9001 53.6912 27.352 53.9183C26.8038 54.1453 26.3352 54.5299 26.0056 55.0232C25.676 55.5165 25.5 56.0966 25.5 56.6899C25.5 57.4856 25.8161 58.2486 26.3787 58.8112C26.9413 59.3738 27.7044 59.6899 28.5 59.6899ZM28.5 55.6899C28.6978 55.6899 28.8911 55.7486 29.0556 55.8584C29.22 55.9683 29.3482 56.1245 29.4239 56.3072C29.4996 56.49 29.5194 56.691 29.4808 56.885C29.4422 57.079 29.347 57.2572 29.2071 57.397C29.0673 57.5369 28.8891 57.6321 28.6951 57.6707C28.5011 57.7093 28.3 57.6895 28.1173 57.6138C27.9346 57.5381 27.7784 57.4099 27.6685 57.2455C27.5587 57.081 27.5 56.8877 27.5 56.6899C27.4973 56.5569 27.5212 56.4247 27.5703 56.3011C27.6194 56.1774 27.6926 56.0648 27.7857 55.9698C27.8789 55.8748 27.99 55.7994 28.1126 55.7479C28.2353 55.6964 28.367 55.6699 28.5 55.6699V55.6899Z" fill="white"/>
<path d="M91.34 31.6701C92.6947 30.9935 93.762 29.8536 94.3482 28.4574C94.9344 27.0611 95.0006 25.501 94.5348 24.0601C94.069 22.6192 93.1021 21.393 91.8096 20.6041C90.517 19.8151 88.9844 19.5157 87.49 19.7601L84.49 10.4701C84.4421 10.3217 84.3603 10.1865 84.2509 10.0754C84.1415 9.9643 84.0076 9.88029 83.86 9.83012C83.7132 9.79128 83.5594 9.7864 83.4104 9.81586C83.2614 9.84531 83.121 9.90833 83 10.0001L60.11 25.7301L51.23 28.6001C50.8871 28.7162 50.5529 28.8566 50.23 29.0201H11.3C11.0348 29.0201 10.7804 29.1255 10.5929 29.313C10.4054 29.5005 10.3 29.7549 10.3 30.0201V47.3301H6.17999C5.91478 47.3301 5.66042 47.4355 5.47289 47.623C5.28535 47.8106 5.17999 48.0649 5.17999 48.3301V65.5601C5.17999 65.8253 5.28535 66.0797 5.47289 66.2672C5.66042 66.4548 5.91478 66.5601 6.17999 66.5601H10.3V79.3401H9.15999C8.50737 79.3166 7.85842 79.4474 7.26589 79.722C6.67336 79.9965 6.15398 80.407 5.74999 80.9201C5.48725 81.272 5.31363 81.6823 5.24397 82.116C5.17432 82.5496 5.21069 82.9936 5.34999 83.4101L6.18999 85.9401C6.99999 88.4601 9.99999 90.2201 13.3 90.2201H80.36C83.71 90.2201 86.63 88.4601 87.47 85.9401L88.31 83.4101C88.4519 82.994 88.4896 82.5494 88.4199 82.1153C88.3501 81.6813 88.1751 81.2709 87.91 80.9201C87.506 80.407 86.9866 79.9965 86.3941 79.722C85.8016 79.4474 85.1526 79.3166 84.5 79.3401H83.36V42.5101L93.42 42.3001C93.5769 42.2978 93.7311 42.2586 93.8701 42.1856C94.0091 42.1127 94.129 42.008 94.22 41.8801C94.3097 41.7522 94.3681 41.6051 94.3907 41.4506C94.4133 41.296 94.3993 41.1383 94.35 40.9901L91.34 31.6701ZM92.6 24.6701C92.9031 25.6009 92.8834 26.6068 92.5441 27.525C92.2047 28.4432 91.5656 29.2201 90.73 29.7301L88.11 21.7301C89.0825 21.6451 90.0552 21.8912 90.8702 22.4286C91.6853 22.9659 92.2948 23.7628 92.6 24.6901V24.6701ZM48 35.1301C48.111 34.2474 48.4299 33.4037 48.9306 32.6683C49.4313 31.9329 50.0994 31.3269 50.88 30.9001C51.173 30.7401 51.4812 30.6094 51.8 30.5101L59.88 27.8901L64.09 40.8901L64.21 41.2501L56.12 43.8601C54.7209 44.3148 53.1987 44.1965 51.8867 43.5311C50.5746 42.8658 49.5798 41.7075 49.12 40.3101L48.22 37.4901C48.0664 36.9744 47.9922 36.4382 48 35.9001C47.9848 35.6437 47.9848 35.3866 48 35.1301ZM65 43.1301L69.7 52.2501L66.54 53.2501L61.85 44.1301L65 43.1301ZM48.35 43.0001L48.47 43.1501C48.663 43.3984 48.87 43.6354 49.09 43.8601L49.2 43.9801C49.4441 44.2152 49.7048 44.4324 49.98 44.6301L50.17 44.7601C50.4457 44.9592 50.7366 45.1364 51.04 45.2901H51.12C51.4085 45.4322 51.7058 45.5557 52.01 45.6601L52.23 45.7301C52.5579 45.8313 52.8919 45.9114 53.23 45.9701H53.44C53.75 45.9701 54.06 46.0301 54.38 46.0401H54.52C54.8544 46.0363 55.1883 46.0129 55.52 45.9701H55.76C56.0984 45.9088 56.4325 45.8253 56.76 45.7201L59.89 44.7201L65.13 54.8901C65.2145 55.0532 65.3422 55.1898 65.4992 55.2851C65.6562 55.3803 65.8364 55.4305 66.02 55.4301C66.1194 55.4452 66.2206 55.4452 66.32 55.4301L71.41 53.7801C71.5486 53.7359 71.6758 53.662 71.7829 53.5636C71.89 53.4651 71.9743 53.3445 72.03 53.2101C72.0909 53.0785 72.1225 52.9352 72.1225 52.7901C72.1225 52.6451 72.0909 52.5018 72.03 52.3701L67.15 42.8701L75.46 42.7001V79.3401H18.22V66.5601H22.34L28.78 72.7201C28.8679 72.7959 28.9654 72.8598 29.07 72.9101H29.17C29.2497 72.9198 29.3303 72.9198 29.41 72.9101H29.47C29.5968 72.9037 29.7218 72.8767 29.84 72.8301C30.0302 72.7456 30.1892 72.6038 30.295 72.4245C30.4007 72.2453 30.4479 72.0375 30.43 71.8301L30.26 66.4301H34.34C34.6052 66.4301 34.8596 66.3248 35.0471 66.1372C35.2346 65.9497 35.34 65.6953 35.34 65.4301V48.3301C35.34 48.0649 35.2346 47.8106 35.0471 47.623C34.8596 47.4355 34.6052 47.3301 34.34 47.3301H18.22V36.9201H46.08C46.1392 37.3068 46.2295 37.688 46.35 38.0601L47.25 40.8801C47.3712 41.2225 47.5149 41.5566 47.68 41.8801L47.78 42.0901C47.951 42.4049 48.1414 42.7088 48.35 43.0001ZM66.56 81.3501V83.7801H27.11V81.3501H66.56ZM12.3 31.0001H47.7C47.6779 31.0191 47.6608 31.0431 47.65 31.0701C47.6109 31.1148 47.5742 31.1616 47.54 31.2101C47.38 31.4201 47.24 31.6301 47.1 31.8501L47 32.0001C46.8508 32.2585 46.7172 32.5257 46.6 32.8001C46.581 32.8617 46.5576 32.9219 46.53 32.9801C46.4299 33.2354 46.3431 33.4958 46.27 33.7601V33.8701C46.1946 34.1635 46.1346 34.4605 46.09 34.7601C46.0948 34.8067 46.0948 34.8536 46.09 34.9001H17.22C16.9548 34.9001 16.7004 35.0055 16.5129 35.193C16.3253 35.3805 16.22 35.6349 16.22 35.9001V47.3301H12.3V31.0001ZM7.17999 64.5601V49.3301H33.38V64.5601H29.27C29.0048 64.5601 28.7504 64.6655 28.5629 64.853C28.3753 65.0405 28.27 65.2949 28.27 65.5601L28.4 69.5601L23.4 64.8101C23.213 64.6351 22.9661 64.5384 22.71 64.5401H7.17999V64.5601ZM16.18 66.5601V79.3401H12.3V66.5601H16.18ZM84.5 81.3401C84.8354 81.3236 85.1703 81.3824 85.48 81.5122C85.7897 81.642 86.0665 81.8394 86.29 82.0901C86.3656 82.1862 86.4168 82.2991 86.4395 82.4192C86.4621 82.5393 86.4554 82.6631 86.42 82.7801L85.57 85.3001C85.01 87.0001 82.82 88.2201 80.36 88.2201H13.3C10.84 88.2201 8.64999 87.0001 8.08999 85.3001L7.24999 82.7801C7.21055 82.6643 7.20087 82.5404 7.22184 82.4198C7.24281 82.2992 7.29376 82.1859 7.36999 82.0901C7.59347 81.8394 7.87023 81.642 8.17997 81.5122C8.48971 81.3824 8.82457 81.3236 9.15999 81.3401H25.16V84.7701C25.16 85.0353 25.2653 85.2897 25.4529 85.4772C25.6404 85.6648 25.8948 85.7701 26.16 85.7701H67.56C67.8252 85.7701 68.0796 85.6648 68.2671 85.4772C68.4546 85.2897 68.56 85.0353 68.56 84.7701V81.3501H84.5V81.3401ZM77.44 79.3401V42.6401L81.36 42.5601V79.3401H77.44ZM67.44 40.8501H66.2L65.2 37.6301L61.74 27.0001L83 12.3601L85.88 21.2501L86.47 23.0801L92 40.3301L67.44 40.8501Z" fill="white"/>
<path d="M37.36 57.64C37.176 57.6667 37.0032 57.7442 36.8608 57.8638C36.7184 57.9833 36.6122 58.1402 36.554 58.3167C36.4959 58.4933 36.4881 58.6826 36.5315 58.8633C36.575 59.0441 36.6679 59.2092 36.8 59.34L43.52 65.89L41.94 75.14C41.9201 75.3196 41.9493 75.5011 42.0243 75.6655C42.0993 75.8298 42.2175 75.9707 42.3662 76.0733C42.5149 76.1758 42.6886 76.2362 42.8689 76.2479C43.0492 76.2597 43.2292 76.2224 43.39 76.14L51.69 71.78L60 76.19C60.1445 76.268 60.3059 76.3092 60.47 76.31C60.6812 76.3069 60.8867 76.2407 61.06 76.12C61.2133 76.0076 61.3315 75.8539 61.4005 75.6768C61.4696 75.4997 61.4868 75.3065 61.45 75.12L59.87 65.87L66.59 59.32C66.7221 59.1892 66.8151 59.0241 66.8585 58.8434C66.902 58.6626 66.8942 58.4733 66.836 58.2967C66.7778 58.1202 66.6716 57.9633 66.5292 57.8438C66.3869 57.7242 66.214 57.6467 66.03 57.62L56.75 56.27L52.6 47.86C52.5181 47.6909 52.3903 47.5484 52.2311 47.4486C52.0719 47.3488 51.8879 47.2959 51.7 47.2959C51.5122 47.2959 51.3281 47.3488 51.1689 47.4486C51.0097 47.5484 50.8819 47.6909 50.8 47.86L46.65 56.27L37.36 57.64ZM48.2 57.64L51.69 50.57L55.18 57.64C55.2524 57.7837 55.3583 57.9078 55.4889 58.0018C55.6195 58.0959 55.7708 58.157 55.93 58.18L63.73 59.32L58.08 64.82C57.966 64.9334 57.8811 65.0726 57.8323 65.2258C57.7836 65.3789 57.7725 65.5416 57.8 65.7L59.13 73.47L52.13 69.8C51.9877 69.7271 51.8299 69.6894 51.67 69.69C51.5072 69.6921 51.3468 69.7296 51.2 69.8L44.2 73.47L45.53 65.7C45.5562 65.5408 45.5436 65.3776 45.4931 65.2244C45.4426 65.0712 45.3558 64.9324 45.24 64.82L39.6 59.32L47.4 58.18C47.5671 58.1658 47.7279 58.1099 47.8677 58.0172C48.0075 57.9246 48.1218 57.7983 48.2 57.65V57.64Z" fill="white"/>
</svg>
