<svg width="100" height="100" viewBox="0 0 100 100" fill="none" xmlns="http://www.w3.org/2000/svg">
<path d="M11.0953 68.9125V93.7754C11.0953 94.8383 11.9563 95.6985 13.0184 95.6985H27.0827C28.0656 95.6985 28.8455 94.951 28.9607 93.9984C33.6644 95.3713 43.5836 98.076 48.7605 98.076C49.1211 98.076 49.4592 98.0629 49.77 98.0347C59.175 97.2009 83.4942 84.6727 84.4023 84.1995C87.0256 83.0699 88.9048 81.3423 88.9048 78.126C88.9048 73.4049 83.6875 70.5518 80.7477 72.0657L69.1022 78.1128C67.3457 78.6939 62.3695 79.1895 61.8009 79.1974C61.5101 78.7976 61.1406 78.433 60.6793 78.126C45.3862 69.6051 45.1358 69.335 44.4393 69.335H29.0058V68.9125C29.0058 67.8495 28.1448 66.9894 27.0828 66.9894H13.0184C11.9564 66.9894 11.0953 67.8496 11.0953 68.9125ZM29.0058 73.1812H43.9369L58.7008 81.4538C58.667 81.9947 58.0698 83.4821 57.5919 84.2201L45.6468 80.7458C44.6224 80.4454 43.5594 81.0332 43.2636 82.0548C42.9669 83.0745 43.5528 84.1413 44.5726 84.438L56.6078 87.9311C57.0547 88.1095 57.5346 88.1996 58.0351 88.1996C60.2767 88.1996 61.6885 85.0742 62.2581 83.0224C62.8245 82.9958 68.2789 82.4578 70.474 81.7093C70.6868 81.6398 72.2614 80.7999 82.251 75.6189C83.742 75.4486 85.0586 76.6183 85.0586 78.126C85.0586 79.8216 83.8316 80.2578 82.758 80.7233C82.513 80.851 58.0867 93.4374 49.43 94.2036C45.3976 94.5731 34.3586 91.5972 29.0058 90.0028V73.1812H29.0058ZM14.9414 70.8356H25.1597V91.8523H14.9414V70.8356ZM34.2454 31.1271C34.2454 35.469 35.6408 39.5781 38.2813 43.0111C40.8119 46.3013 42.8138 52.8913 43.6759 57.9619C43.8327 58.8858 44.6336 59.5619 45.5717 59.5619H61.9404C62.8831 59.5619 63.686 58.8783 63.8381 57.9487C64.6175 53.1823 66.4316 46.4872 68.981 43.304C72.3042 39.1537 73.7643 33.9328 73.0929 28.6049C71.9849 19.8083 64.7743 12.7189 55.9496 11.7479C44.2129 10.4822 34.2454 19.6506 34.2454 31.1271ZM55.5289 15.5715C62.6061 16.349 68.3885 22.0337 69.2768 29.0856C69.8177 33.3731 68.6458 37.5686 65.9781 40.9002C62.7639 44.9135 61.0446 52.0273 60.3309 55.7157H55.6716V40.6034L59.3948 36.8812C60.146 36.13 60.146 34.9131 59.3948 34.1619C58.6436 33.4107 57.4266 33.4107 56.6754 34.1619L53.7486 37.0878L50.8217 34.1619C50.0705 33.4107 48.8535 33.4107 48.1024 34.1619C47.3512 34.9131 47.3511 36.13 48.1024 36.8812L51.8255 40.6034V55.7157H47.169C46.1596 50.7297 44.151 44.335 41.3293 40.6673C39.2109 37.9122 38.0917 34.6126 38.0917 31.127C38.0916 21.9079 46.1088 14.5424 55.5289 15.5715ZM55.6716 8.96659V3.84715C55.6716 2.78421 54.8105 1.92407 53.7485 1.92407C52.6865 1.92407 51.8255 2.78421 51.8255 3.84715V8.96659C51.8255 10.0295 52.6865 10.8897 53.7485 10.8897C54.8105 10.8897 55.6716 10.0295 55.6716 8.96659Z" fill="white"/>
<path d="M36.0624 10.3769C35.3111 9.62567 34.0942 9.62567 33.343 10.3769C32.5918 11.1281 32.5918 12.345 33.343 13.0962L36.5469 16.3001C37.2981 17.0513 38.515 17.0513 39.2662 16.3001C40.0175 15.5489 40.0175 14.332 39.2662 13.5808L36.0624 10.3769ZM70.9501 45.2646C70.1988 44.5134 68.9819 44.5134 68.2307 45.2646C67.4795 46.0158 67.4795 47.2327 68.2307 47.9839L71.4346 51.1878C72.1858 51.939 73.4027 51.939 74.1539 51.1878C74.9051 50.4366 74.9051 49.2197 74.1539 48.4685L70.9501 45.2646ZM26.8141 28.8583C25.7521 28.8583 24.8911 29.7185 24.8911 30.7814C24.8911 31.8443 25.7521 32.7045 26.8141 32.7045H31.9336C32.9956 32.7045 33.8566 31.8443 33.8566 30.7814C33.8566 29.7185 32.9956 28.8583 31.9336 28.8583H26.8141ZM80.6838 32.7045C81.7458 32.7045 82.6068 31.8443 82.6068 30.7814C82.6068 29.7185 81.7458 28.8583 80.6838 28.8583H75.5643C74.5023 28.8583 73.6412 29.7185 73.6412 30.7814C73.6412 31.8443 74.5023 32.7045 75.5643 32.7045H80.6838ZM36.5469 45.2646L33.343 48.4685C32.5918 49.2197 32.5918 50.4366 33.343 51.1878C34.0942 51.939 35.3111 51.939 36.0623 51.1878L39.2662 47.9839C40.0174 47.2327 40.0174 46.0158 39.2662 45.2646C38.515 44.5134 37.2981 44.5134 36.5469 45.2646ZM71.4346 10.3769L68.2307 13.5808C67.4795 14.332 67.4795 15.5489 68.2307 16.3001C68.9819 17.0513 70.1988 17.0513 70.9501 16.3001L74.1539 13.0962C74.9051 12.345 74.9051 11.1281 74.1539 10.3769C73.4027 9.62569 72.1858 9.62567 71.4346 10.3769ZM48.2872 62.6399C47.2252 62.6399 46.3642 63.5 46.3642 64.5629C46.3642 65.6259 47.2252 66.486 48.2872 66.486H59.2097C60.2717 66.486 61.1328 65.6259 61.1328 64.5629C61.1328 63.5 60.2717 62.6399 59.2097 62.6399H48.2872Z" fill="white"/>
</svg>
