<svg width="84" height="98" viewBox="0 0 84 98" fill="none" xmlns="http://www.w3.org/2000/svg">
<path fill-rule="evenodd" clip-rule="evenodd" d="M21 56V87.5C21 93.296 25.704 98 31.5 98H73.5C79.296 98 84 93.296 84 87.5V10.5C84 4.704 79.296 0 73.5 0H49C47.068 0 45.5 1.568 45.5 3.5C45.5 5.432 47.068 7 49 7H73.5C75.432 7 77 8.568 77 10.5V87.5C77 89.432 75.432 91 73.5 91H31.5C29.568 91 28 89.432 28 87.5V56C28 54.068 26.432 52.5 24.5 52.5C22.568 52.5 21 54.068 21 56ZM38.5 80.5H66.5C68.432 80.5 70 78.932 70 77C70 75.068 68.432 73.5 66.5 73.5H38.5C36.568 73.5 35 75.068 35 77C35 78.932 36.568 80.5 38.5 80.5ZM38.5 66.5H66.5C68.432 66.5 70 64.932 70 63C70 61.068 68.432 59.5 66.5 59.5H38.5C36.568 59.5 35 61.068 35 63C35 64.932 36.568 66.5 38.5 66.5ZM52.5 52.5H66.5C68.432 52.5 70 50.932 70 49C70 47.068 68.432 45.5 66.5 45.5H52.5C50.568 45.5 49 47.068 49 49C49 50.932 50.568 52.5 52.5 52.5ZM24.5 0C10.9795 0 0 10.9795 0 24.5C0 38.0205 10.9795 49 24.5 49C38.0205 49 49 38.0205 49 24.5C49 10.9795 38.0205 0 24.5 0ZM24.5 7C34.16 7 42 14.84 42 24.5C42 34.16 34.16 42 24.5 42C14.84 42 7 34.16 7 24.5C7 14.84 14.84 7 24.5 7ZM59.5 38.5H66.5C68.432 38.5 70 36.932 70 35C70 33.068 68.432 31.5 66.5 31.5H59.5C57.568 31.5 56 33.068 56 35C56 36.932 57.568 38.5 59.5 38.5ZM21 17.5V21H17.5C15.568 21 14 22.568 14 24.5C14 26.432 15.568 28 17.5 28H24.5C26.432 28 28 26.432 28 24.5V17.5C28 15.568 26.432 14 24.5 14C22.568 14 21 15.568 21 17.5ZM59.5 24.5H66.5C68.432 24.5 70 22.932 70 21C70 19.068 68.432 17.5 66.5 17.5H59.5C57.568 17.5 56 19.068 56 21C56 22.932 57.568 24.5 59.5 24.5Z" fill="white"/>
</svg>
