<svg width="20" height="17" viewBox="0 0 20 17" fill="none" xmlns="http://www.w3.org/2000/svg">
<path d="M16.5312 15.5625C16.5312 15.836 16.4226 16.0983 16.2292 16.2917C16.0358 16.4851 15.7735 16.5937 15.5 16.5937H2.4375C1.98236 16.5915 1.5465 16.4097 1.22466 16.0878C0.902816 15.766 0.721009 15.3301 0.71875 14.875V4.56247C0.71875 4.28897 0.827399 4.02666 1.0208 3.83327C1.21419 3.63987 1.4765 3.53122 1.75 3.53122C2.0235 3.53122 2.28581 3.63987 2.4792 3.83327C2.6726 4.02666 2.78125 4.28897 2.78125 4.56247V14.5312H15.5C15.7735 14.5312 16.0358 14.6399 16.2292 14.8333C16.4226 15.0267 16.5312 15.289 16.5312 15.5625ZM19.0492 6.59059L19.075 6.54763L19.1094 6.51325L19.1352 6.46169L19.1609 6.42731L19.1867 6.37575C19.1867 6.35856 19.1953 6.34997 19.2039 6.33278C19.2125 6.31559 19.2125 6.29841 19.2211 6.28122C19.2297 6.26403 19.2297 6.25544 19.2383 6.23825C19.2469 6.22106 19.2469 6.20388 19.2469 6.18669C19.2469 6.1695 19.2555 6.15231 19.2641 6.13513C19.2628 6.1175 19.2658 6.09983 19.2727 6.08356V6.04059C19.2813 5.97212 19.2813 5.90282 19.2727 5.83435V5.79138C19.2658 5.77511 19.2628 5.75744 19.2641 5.73981C19.2555 5.72263 19.2555 5.70544 19.2469 5.68825C19.2383 5.67106 19.2383 5.65388 19.2383 5.63669C19.2383 5.6195 19.2297 5.60231 19.2211 5.59372C19.2125 5.58513 19.2125 5.55935 19.2039 5.54216C19.1953 5.52497 19.1867 5.51638 19.1867 5.49919L19.1609 5.44763L19.1352 5.41325L19.1094 5.36169L19.075 5.32731L19.0492 5.28435L18.9891 5.21559H18.9805L14.8555 1.09059C14.6617 0.896862 14.399 0.788025 14.125 0.788025C13.851 0.788025 13.5883 0.896862 13.3945 1.09059C13.2008 1.28433 13.092 1.54708 13.092 1.82106C13.092 2.09504 13.2008 2.3578 13.3945 2.55153L15.7578 4.90622H13.4375C11.3795 4.90566 9.37959 5.58915 7.75239 6.84922C6.12519 8.10929 4.96295 9.87446 4.44844 11.8672C4.3805 12.1315 4.42014 12.412 4.55868 12.6472C4.69721 12.8824 4.92334 13.0531 5.1875 13.1218C5.27128 13.1459 5.35815 13.1575 5.44531 13.1562C5.67403 13.1573 5.89653 13.0818 6.07725 12.9416C6.25796 12.8014 6.38645 12.6046 6.44219 12.3828C6.84253 10.8323 7.74706 9.45889 9.01344 8.47877C10.2798 7.49865 11.8361 6.96744 13.4375 6.96872H15.7578L13.3945 9.332C13.2984 9.42781 13.2221 9.54165 13.1701 9.667C13.118 9.79235 13.0912 9.92674 13.0912 10.0625C13.0912 10.1982 13.118 10.3326 13.1701 10.4579C13.2221 10.5833 13.2984 10.6971 13.3945 10.7929C13.5891 10.985 13.8516 11.0927 14.125 11.0927C14.3984 11.0927 14.6609 10.985 14.8555 10.7929L18.9805 6.66794H18.9891L19.0492 6.59059Z" fill="#283746"/>
</svg>
