<svg width="60" height="60" viewBox="0 0 60 60" fill="none" xmlns="http://www.w3.org/2000/svg">
<path d="M14.2085 34.7771L25.2166 45.7914L45.4224 25.5856L34.4081 14.5775L14.2085 34.7771ZM58.2223 19.6584L53.5382 14.9712C52.3485 15.6213 50.9802 15.8685 49.6382 15.6759C48.2962 15.4833 47.0527 14.8611 46.0938 13.9026C45.135 12.9441 44.5124 11.7008 44.3193 10.3589C44.1262 9.01698 44.3729 7.64859 45.0225 6.45862L40.3384 1.77142C39.748 1.18608 38.9503 0.857666 38.1188 0.857666C37.2874 0.857666 36.4897 1.18608 35.8992 1.77142L1.76824 35.9024C1.18291 36.4929 0.854492 37.2906 0.854492 38.122C0.854492 38.9534 1.18291 39.7512 1.76824 40.3416L6.45544 45.0226C7.64578 44.3709 9.01535 44.1226 10.3587 44.3151C11.7021 44.5075 12.9469 45.1304 13.9063 46.0902C14.8657 47.05 15.4881 48.2949 15.6801 49.6384C15.8721 50.9818 15.6233 52.3513 14.9711 53.5414L19.6583 58.2224C20.248 58.8093 21.046 59.1387 21.8779 59.1387C22.7098 59.1387 23.5079 58.8093 24.0975 58.2224L58.2223 24.0976C58.8092 23.508 59.1386 22.7099 59.1386 21.878C59.1386 21.0461 58.8092 20.2481 58.2223 19.6584ZM25.2166 50.8289L9.17104 34.7771L34.4112 9.54002L50.4568 25.5856L25.2166 50.8289Z" fill="#283746"/>
</svg>
