<svg width="20" height="20" viewBox="0 0 20 20" fill="none" xmlns="http://www.w3.org/2000/svg">
<path d="M12.3189 2.29086C12.19 2.16211 12.0153 2.08979 11.8331 2.08979C11.6509 2.08979 11.4762 2.16211 11.3473 2.29086L2.29061 11.3475C2.16187 11.4764 2.08955 11.6512 2.08955 11.8334C2.08955 12.0155 2.16187 12.1903 2.29061 12.3192L3.27053 13.2982C3.74966 13.0305 4.30306 12.9265 4.84668 13.002C5.3903 13.0774 5.89444 13.3283 6.28253 13.7164C6.67061 14.1044 6.92144 14.6086 6.99691 15.1522C7.07239 15.6958 6.96838 16.2492 6.7007 16.7284L7.68061 17.7092C7.74446 17.7731 7.82027 17.8238 7.90371 17.8583C7.98715 17.8929 8.07658 17.9107 8.1669 17.9107C8.25722 17.9107 8.34666 17.8929 8.4301 17.8583C8.51354 17.8238 8.58935 17.7731 8.6532 17.7092L17.7089 8.65344C17.8377 8.52453 17.91 8.34979 17.91 8.16761C17.91 7.98542 17.8377 7.81068 17.7089 7.68177L16.7281 6.70002C16.249 6.96771 15.6956 7.07172 15.152 6.99624C14.6083 6.92077 14.1042 6.66994 13.7161 6.28186C13.328 5.89377 13.0772 5.38963 13.0017 4.84601C12.9263 4.30239 13.0303 3.74899 13.2979 3.26986L12.3189 2.29086ZM10.3756 1.31919C10.5671 1.12767 10.7945 0.975741 11.0447 0.872089C11.295 0.768437 11.5632 0.715088 11.834 0.715088C12.1049 0.715088 12.3731 0.768437 12.6233 0.872089C12.8736 0.975741 13.1009 1.12767 13.2924 1.31919L14.3659 2.39352C14.8343 2.86102 14.7509 3.51827 14.5144 3.91519C14.3844 4.13414 14.331 4.39015 14.3627 4.64281C14.3944 4.89547 14.5093 5.13037 14.6894 5.31043C14.8694 5.49048 15.1043 5.60543 15.357 5.63712C15.6096 5.66882 15.8657 5.61545 16.0846 5.48544C16.4815 5.24986 17.1388 5.16552 17.6063 5.63394L18.6806 6.70919C18.8721 6.90071 19.0241 7.12808 19.1277 7.37832C19.2314 7.62855 19.2847 7.89675 19.2847 8.16761C19.2847 8.43846 19.2314 8.70666 19.1277 8.9569C19.0241 9.20713 18.8721 9.4345 18.6806 9.62602L9.62578 18.6809C9.43426 18.8724 9.20689 19.0243 8.95665 19.128C8.70642 19.2316 8.43822 19.285 8.16736 19.285C7.89651 19.285 7.62831 19.2316 7.37807 19.128C7.12784 19.0243 6.90047 18.8724 6.70895 18.6809L5.63461 17.6074C5.16711 17.1399 5.24961 16.4818 5.48611 16.0858C5.61612 15.8668 5.66949 15.6108 5.6378 15.3582C5.6061 15.1055 5.49115 14.8706 5.3111 14.6905C5.13104 14.5105 4.89614 14.3955 4.64348 14.3638C4.39083 14.3321 4.13481 14.3855 3.91586 14.5155C3.51894 14.7511 2.8617 14.8345 2.3942 14.3661L1.31894 13.2918C1.12742 13.1003 0.975497 12.8729 0.871845 12.6226C0.768193 12.3724 0.714844 12.1042 0.714844 11.8334C0.714844 11.5625 0.768193 11.2943 0.871845 11.0441C0.975497 10.7938 1.12742 10.5665 1.31894 10.3749L10.3756 1.31919Z" fill="#FFAB00"/>
</svg>
