<svg width="21" height="21" viewBox="0 0 21 21" fill="none" xmlns="http://www.w3.org/2000/svg">
<path fill-rule="evenodd" clip-rule="evenodd" d="M1.81884 8.41953C1.81884 4.77281 4.77038 1.81884 8.40845 1.81884C12.0465 1.81884 14.9981 4.77281 14.9981 8.41953C14.9981 12.0663 12.0465 15.0202 8.40845 15.0202C4.77038 15.0202 1.81884 12.0663 1.81884 8.41953ZM8.40845 0C3.76333 0 0 3.77082 0 8.41953C0 13.0682 3.76333 16.8391 8.40845 16.8391C10.3944 16.8391 12.2191 16.1498 13.6575 14.9974C13.6846 15.0295 13.7133 15.0608 13.7437 15.0912L16.8889 19.5686C17.3562 20.0367 17.7351 20.4161 19.0608 19.0885C20.3941 17.7532 20.0511 17.416 19.614 16.9864C19.5896 16.9624 19.5649 16.9382 19.5402 16.9134L15.0693 13.7635C15.0391 13.7332 15.0079 13.7046 14.9761 13.6775C16.1281 12.2366 16.8169 10.4084 16.8169 8.41953C16.8169 3.77082 13.0536 0 8.40845 0Z" fill="#F0F0F0"/>
</svg>
